# xmcd
#
# Track frame offsets:
#	150
#	14569
#	27362
#	43387
#	63271
#	80273
#	104308
#	118920
#	140812
#	152896
#	173981
#	191140
#	207022
#	236077
#
# Disc length: 3337 seconds
#
# Revision: 0
# Processed by: cddbd v1.5.2PL0 Copyright (c) Steve Scherf et al.
# Submitted via: audiograbber 1.83.01
#
DISCID=cc0d070e
DTITLE=Marvin Gaye - Marvin Gaye's Greatest Hits
DYEAR=1900
DGENRE=Pop
TTITLE0=I Heard It Through The Grapevine
TTITLE1=Too Busy Thinking About My Baby
TTITLE2=That's The Way Love Is
TTITLE3=Abraham, Martin And John
TTITLE4=What's Going On
TTITLE5=Inner City Blues (Make Me Wanna Holler)
TTITLE6=Mercy Mercy Me (The Ecology)
TTITLE7=Let's Get It On
TTITLE8=Come Get To This
TTITLE9=You Sure Love To Ball
TTITLE10=I Want You (Vocal)
TTITLE11=After The Dance (Vocal)
TTITLE12=Come Live With Me Angel
TTITLE13=Save The Children
EXTD=
EXTT0=
EXTT1=
EXTT2=
EXTT3=
EXTT4=
EXTT5=
EXTT6=
EXTT7=
EXTT8=
EXTT9=
EXTT10=
EXTT11=
EXTT12=
EXTT13=
PLAYORDER=
